<svg width="800" height="600" viewBox="0 0 800 600" fill="none" xmlns="http://www.w3.org/2000/svg">
  <!-- Background -->
  <rect width="800" height="600" fill="#F9FAFB" />
  
  <!-- Sidebar -->
  <rect width="200" height="600" fill="#1E40AF" />
  
  <!-- Sidebar menu items -->
  <rect x="20" y="100" width="160" height="40" rx="4" fill="#2563EB" />
  <rect x="30" y="115" width="100" height="10" rx="2" fill="white" />
  
  <rect x="20" y="150" width="160" height="40" rx="4" fill="#1E40AF" />
  <rect x="30" y="165" width="120" height="10" rx="2" fill="#93C5FD" />
  
  <rect x="20" y="200" width="160" height="40" rx="4" fill="#1E40AF" />
  <rect x="30" y="215" width="80" height="10" rx="2" fill="#93C5FD" />
  
  <rect x="20" y="250" width="160" height="40" rx="4" fill="#1E40AF" />
  <rect x="30" y="265" width="110" height="10" rx="2" fill="#93C5FD" />
  
  <!-- Logo area -->
  <rect x="20" y="20" width="160" height="40" rx="4" fill="#1E40AF" />
  <rect x="30" y="35" width="140" height="10" rx="2" fill="white" />
  
  <!-- Main content area -->
  <!-- Header -->
  <rect x="220" y="20" width="560" height="60" rx="4" fill="white" />
  <rect x="240" y="45" width="200" height="10" rx="2" fill="#1F2937" />
  <circle cx="740" cy="50" r="20" fill="#DBEAFE" />
  
  <!-- Stats cards -->
  <rect x="220" y="100" width="175" height="100" rx="8" fill="white" stroke="#E5E7EB" />
  <rect x="240" y="120" width="80" height="10" rx="2" fill="#9CA3AF" />
  <rect x="240" y="150" width="60" height="20" rx="2" fill="#1F2937" />
  
  <rect x="415" y="100" width="175" height="100" rx="8" fill="white" stroke="#E5E7EB" />
  <rect x="435" y="120" width="80" height="10" rx="2" fill="#9CA3AF" />
  <rect x="435" y="150" width="60" height="20" rx="2" fill="#1F2937" />
  
  <rect x="610" y="100" width="175" height="100" rx="8" fill="white" stroke="#E5E7EB" />
  <rect x="630" y="120" width="80" height="10" rx="2" fill="#9CA3AF" />
  <rect x="630" y="150" width="60" height="20" rx="2" fill="#1F2937" />
  
  <!-- Recent forms table -->
  <rect x="220" y="220" width="560" height="360" rx="8" fill="white" stroke="#E5E7EB" />
  <rect x="240" y="240" width="150" height="20" rx="2" fill="#1F2937" />
  
  <!-- Table header -->
  <rect x="240" y="280" width="520" height="40" rx="4" fill="#F3F4F6" />
  <rect x="260" y="295" width="80" height="10" rx="2" fill="#4B5563" />
  <rect x="400" y="295" width="80" height="10" rx="2" fill="#4B5563" />
  <rect x="540" y="295" width="80" height="10" rx="2" fill="#4B5563" />
  <rect x="680" y="295" width="60" height="10" rx="2" fill="#4B5563" />
  
  <!-- Table rows -->
  <rect x="240" y="330" width="520" height="1" fill="#E5E7EB" />
  <rect x="260" y="345" width="100" height="10" rx="2" fill="#1F2937" />
  <rect x="400" y="345" width="60" height="10" rx="2" fill="#6B7280" />
  <rect x="540" y="345" width="40" height="10" rx="2" fill="#6B7280" />
  <rect x="680" y="345" width="40" height="10" rx="2" fill="#3B82F6" />
  
  <rect x="240" y="370" width="520" height="1" fill="#E5E7EB" />
  <rect x="260" y="385" width="120" height="10" rx="2" fill="#1F2937" />
  <rect x="400" y="385" width="60" height="10" rx="2" fill="#6B7280" />
  <rect x="540" y="385" width="40" height="10" rx="2" fill="#6B7280" />
  <rect x="680" y="385" width="40" height="10" rx="2" fill="#3B82F6" />
  
  <rect x="240" y="410" width="520" height="1" fill="#E5E7EB" />
  <rect x="260" y="425" width="90" height="10" rx="2" fill="#1F2937" />
  <rect x="400" y="425" width="60" height="10" rx="2" fill="#6B7280" />
  <rect x="540" y="425" width="40" height="10" rx="2" fill="#6B7280" />
  <rect x="680" y="425" width="40" height="10" rx="2" fill="#3B82F6" />
  
  <rect x="240" y="450" width="520" height="1" fill="#E5E7EB" />
  <rect x="260" y="465" width="110" height="10" rx="2" fill="#1F2937" />
  <rect x="400" y="465" width="60" height="10" rx="2" fill="#6B7280" />
  <rect x="540" y="465" width="40" height="10" rx="2" fill="#6B7280" />
  <rect x="680" y="465" width="40" height="10" rx="2" fill="#3B82F6" />
  
  <rect x="240" y="490" width="520" height="1" fill="#E5E7EB" />
  <rect x="260" y="505" width="100" height="10" rx="2" fill="#1F2937" />
  <rect x="400" y="505" width="60" height="10" rx="2" fill="#6B7280" />
  <rect x="540" y="505" width="40" height="10" rx="2" fill="#6B7280" />
  <rect x="680" y="505" width="40" height="10" rx="2" fill="#3B82F6" />
  
  <rect x="240" y="530" width="520" height="1" fill="#E5E7EB" />
  <rect x="260" y="545" width="80" height="10" rx="2" fill="#1F2937" />
  <rect x="400" y="545" width="60" height="10" rx="2" fill="#6B7280" />
  <rect x="540" y="545" width="40" height="10" rx="2" fill="#6B7280" />
  <rect x="680" y="545" width="40" height="10" rx="2" fill="#3B82F6" />
</svg> 