<svg width="400" height="300" viewBox="0 0 400 300" fill="none" xmlns="http://www.w3.org/2000/svg">
  <!-- Background -->
  <rect width="400" height="300" fill="#EBF5FF" />
  
  <!-- Form Title -->
  <rect x="30" y="20" width="340" height="30" rx="4" fill="#FFFFFF" />
  <text x="50" y="40" font-family="Arial" font-size="14" fill="#2563EB" font-weight="bold">Customer Feedback Form</text>
  
  <!-- Name Field -->
  <rect x="30" y="60" width="340" height="30" rx="4" fill="#FFFFFF" />
  <text x="40" y="80" font-family="Arial" font-size="12" fill="#4B5563">Full Name</text>
  
  <!-- Email Field -->
  <rect x="30" y="100" width="340" height="30" rx="4" fill="#FFFFFF" />
  <text x="40" y="120" font-family="Arial" font-size="12" fill="#4B5563">Email Address</text>
  
  <!-- Rating Field -->
  <rect x="30" y="140" width="340" height="30" rx="4" fill="#FFFFFF" />
  <text x="40" y="160" font-family="Arial" font-size="12" fill="#4B5563">Overall Rating</text>
  
  <!-- Rating Stars -->
  <circle cx="200" cy="155" r="8" fill="#DBEAFE" stroke="#3B82F6" stroke-width="2" />
  <circle cx="220" cy="155" r="8" fill="#DBEAFE" stroke="#3B82F6" stroke-width="2" />
  <circle cx="240" cy="155" r="8" fill="#DBEAFE" stroke="#3B82F6" stroke-width="2" />
  <circle cx="260" cy="155" r="8" fill="#DBEAFE" stroke="#3B82F6" stroke-width="2" />
  <circle cx="280" cy="155" r="8" fill="#DBEAFE" stroke="#3B82F6" stroke-width="2" />
  
  <!-- Comments Field -->
  <rect x="30" y="180" width="340" height="60" rx="4" fill="#FFFFFF" />
  <text x="40" y="200" font-family="Arial" font-size="12" fill="#4B5563">Comments</text>
  
  <!-- Submit Button -->
  <rect x="30" y="250" width="120" height="30" rx="4" fill="#2563EB" />
  <text x="65" y="270" font-family="Arial" font-size="12" fill="#FFFFFF" font-weight="bold">Submit Feedback</text>
</svg> 